<?xml version="1.0" standalone="no"?>
<!DOCTYPE svg PUBLIC "-//W3C//DTD SVG 20010904//EN"
 "http://www.w3.org/TR/2001/REC-SVG-20010904/DTD/svg10.dtd">
<svg version="1.0" xmlns="http://www.w3.org/2000/svg"
 width="512.000000pt" height="512.000000pt" viewBox="0 0 512.000000 512.000000"
 preserveAspectRatio="xMidYMid meet">
<metadata>
Created by potrace 1.14, written by Peter Selinger 2001-2017
</metadata>
<g transform="translate(0.000000,512.000000) scale(0.100000,-0.100000)"
fill="#000000" stroke="none">
<path d="M3066 5095 c-26 -28 -26 -28 -26 -211 0 -100 3 -190 6 -199 8 -19 55
-45 84 -45 12 0 32 12 46 27 l25 27 -3 193 c-3 214 -5 219 -71 230 -30 5 -40
1 -61 -22z"/>
<path d="M2064 4687 c-29 -16 -43 -39 -44 -72 0 -24 22 -51 138 -167 150 -150
167 -159 216 -115 34 30 40 69 14 102 -19 25 -180 188 -230 233 -29 27 -67 34
-94 19z"/>
<path d="M4106 4689 c-33 -20 -258 -253 -267 -276 -11 -29 3 -66 33 -87 47
-34 65 -24 210 122 116 116 138 143 138 167 -1 59 -67 102 -114 74z"/>
<path d="M2935 4460 c-251 -57 -457 -210 -587 -438 -15 -26 -33 -45 -40 -44
-66 17 -297 23 -393 10 -367 -50 -701 -304 -858 -654 -30 -67 -78 -214 -77
-234 0 -3 -2 -23 -5 -45 -10 -65 -13 -106 -14 -176 l-1 -65 -46 -22 c-57 -28
-139 -88 -197 -145 -248 -245 -305 -624 -142 -945 27 -54 95 -145 144 -192
110 -108 283 -197 420 -216 23 -3 50 -7 59 -9 9 -2 230 -4 490 -4 350 -1 472
-4 472 -13 0 -6 -27 -84 -59 -172 -33 -89 -68 -186 -79 -216 -28 -78 -177
-487 -218 -598 -19 -51 -34 -97 -34 -102 0 -6 249 239 554 544 l555 555 628 4
c596 3 632 4 698 24 258 74 464 263 546 500 50 145 60 328 25 468 -55 216
-216 421 -402 512 -44 21 -54 31 -55 52 -4 87 -16 153 -45 239 -46 136 -106
233 -213 344 l-65 67 1 93 c4 249 -83 463 -257 638 -123 123 -267 202 -433
240 -88 21 -281 20 -372 0z m400 -174 c277 -89 475 -335 500 -620 7 -75 6 -79
-11 -72 -172 70 -239 83 -399 81 -150 -2 -245 -24 -372 -85 l-76 -37 -30 36
c-105 125 -256 241 -400 309 l-68 32 25 41 c79 133 223 253 366 304 142 52
327 56 465 11z m-365 -1893 c0 -5 -54 -147 -119 -318 l-119 -310 199 -5 199
-5 -485 -485 c-317 -316 -482 -475 -475 -455 18 46 137 377 181 499 21 60 39
113 39 118 0 4 -91 8 -201 8 -187 0 -201 1 -197 18 6 20 322 849 346 905 l16
37 308 0 c169 0 308 -3 308 -7z"/>
<path d="M4214 3669 c-62 -23 -66 -117 -6 -142 41 -17 364 -15 397 3 33 18 46
58 30 97 -7 17 -19 34 -27 39 -16 10 -367 13 -394 3z"/>
</g>
</svg>
